<svg width="104" height="104" viewBox="0 0 104 104" fill="none" xmlns="http://www.w3.org/2000/svg">
<g filter="url(#filter0_d_10_4)">
<circle cx="52" cy="52" r="44.5" stroke="white" stroke-width="3" shape-rendering="crispEdges"/>
</g>
<g filter="url(#filter1_d_10_4)">
<path d="M38.9432 44.5455V62H36.8295V46.7614H36.7273L32.4659 49.5909V47.4432L36.8295 44.5455H38.9432ZM49.6562 62.2386C48.3722 62.2386 47.2784 61.8892 46.375 61.1903C45.4716 60.4858 44.7813 59.4659 44.304 58.1307C43.8267 56.7898 43.5881 55.1705 43.5881 53.2727C43.5881 51.3864 43.8267 49.7756 44.304 48.4403C44.7869 47.0994 45.4801 46.0767 46.3835 45.3722C47.2926 44.6619 48.3835 44.3068 49.6562 44.3068C50.929 44.3068 52.017 44.6619 52.9205 45.3722C53.8295 46.0767 54.5227 47.0994 55 48.4403C55.483 49.7756 55.7244 51.3864 55.7244 53.2727C55.7244 55.1705 55.4858 56.7898 55.0085 58.1307C54.5312 59.4659 53.8409 60.4858 52.9375 61.1903C52.0341 61.8892 50.9403 62.2386 49.6562 62.2386ZM49.6562 60.3636C50.929 60.3636 51.9176 59.75 52.6222 58.5227C53.3267 57.2955 53.679 55.5455 53.679 53.2727C53.679 51.7614 53.517 50.4744 53.1932 49.4119C52.875 48.3494 52.4148 47.5398 51.8125 46.983C51.2159 46.4261 50.4972 46.1477 49.6562 46.1477C48.3949 46.1477 47.4091 46.7699 46.6989 48.0142C45.9886 49.2528 45.6335 51.0057 45.6335 53.2727C45.6335 54.7841 45.7926 56.0682 46.1108 57.125C46.429 58.1818 46.8864 58.9858 47.483 59.5369C48.0852 60.0881 48.8097 60.3636 49.6562 60.3636ZM64.6562 62.2386C63.3722 62.2386 62.2784 61.8892 61.375 61.1903C60.4716 60.4858 59.7813 59.4659 59.304 58.1307C58.8267 56.7898 58.5881 55.1705 58.5881 53.2727C58.5881 51.3864 58.8267 49.7756 59.304 48.4403C59.7869 47.0994 60.4801 46.0767 61.3835 45.3722C62.2926 44.6619 63.3835 44.3068 64.6562 44.3068C65.929 44.3068 67.017 44.6619 67.9205 45.3722C68.8295 46.0767 69.5227 47.0994 70 48.4403C70.483 49.7756 70.7244 51.3864 70.7244 53.2727C70.7244 55.1705 70.4858 56.7898 70.0085 58.1307C69.5312 59.4659 68.8409 60.4858 67.9375 61.1903C67.0341 61.8892 65.9403 62.2386 64.6562 62.2386ZM64.6562 60.3636C65.929 60.3636 66.9176 59.75 67.6222 58.5227C68.3267 57.2955 68.679 55.5455 68.679 53.2727C68.679 51.7614 68.517 50.4744 68.1932 49.4119C67.875 48.3494 67.4148 47.5398 66.8125 46.983C66.2159 46.4261 65.4972 46.1477 64.6562 46.1477C63.3949 46.1477 62.4091 46.7699 61.6989 48.0142C60.9886 49.2528 60.6335 51.0057 60.6335 53.2727C60.6335 54.7841 60.7926 56.0682 61.1108 57.125C61.429 58.1818 61.8864 58.9858 62.483 59.5369C63.0852 60.0881 63.8097 60.3636 64.6562 60.3636Z" fill="white"/>
</g>
<defs>
<filter id="filter0_d_10_4" x="0" y="0" width="104" height="104" filterUnits="userSpaceOnUse" color-interpolation-filters="sRGB">
<feFlood flood-opacity="0" result="BackgroundImageFix"/>
<feColorMatrix in="SourceAlpha" type="matrix" values="0 0 0 0 0 0 0 0 0 0 0 0 0 0 0 0 0 0 127 0" result="hardAlpha"/>
<feMorphology radius="2" operator="dilate" in="SourceAlpha" result="effect1_dropShadow_10_4"/>
<feOffset/>
<feGaussianBlur stdDeviation="2"/>
<feComposite in2="hardAlpha" operator="out"/>
<feColorMatrix type="matrix" values="0 0 0 0 1 0 0 0 0 1 0 0 0 0 1 0 0 0 1 0"/>
<feBlend mode="normal" in2="BackgroundImageFix" result="effect1_dropShadow_10_4"/>
<feBlend mode="normal" in="SourceGraphic" in2="effect1_dropShadow_10_4" result="shape"/>
</filter>
<filter id="filter1_d_10_4" x="27.4659" y="42.3068" width="46.2585" height="25.9318" filterUnits="userSpaceOnUse" color-interpolation-filters="sRGB">
<feFlood flood-opacity="0" result="BackgroundImageFix"/>
<feColorMatrix in="SourceAlpha" type="matrix" values="0 0 0 0 0 0 0 0 0 0 0 0 0 0 0 0 0 0 127 0" result="hardAlpha"/>
<feOffset dx="-1" dy="2"/>
<feGaussianBlur stdDeviation="2"/>
<feComposite in2="hardAlpha" operator="out"/>
<feColorMatrix type="matrix" values="0 0 0 0 1 0 0 0 0 1 0 0 0 0 1 0 0 0 1 0"/>
<feBlend mode="normal" in2="BackgroundImageFix" result="effect1_dropShadow_10_4"/>
<feBlend mode="normal" in="SourceGraphic" in2="effect1_dropShadow_10_4" result="shape"/>
</filter>
</defs>
</svg>
