<svg xmlns="http://www.w3.org/2000/svg" viewBox="0 0 100 125" x="0px" y="0px"><title>Artboard 81</title><g data-name="Layer 2"><circle cx="44.43054" cy="13.37425" r="7.37386"/><path d="M67.95161,56.86018l2.801,3.997-18.296,12.79889a4.9296,4.9296,0,0,1-7.45907-2.36045l-1.133-3.07382,6.368-11.03643,1.7834,4.87829,9.13758-6.39948A4.88736,4.88736,0,0,1,67.95161,56.86018Z"/><path d="M93.55875,24.66447,57.638,27.80123c-.08394.78682-4.20685,23.52061-4.20685,23.52061a7.85035,7.85035,0,0,1-3.43054,5.21394L29.77412,91.56486a4.88261,4.88261,0,0,1-6.66169,1.78346l-4.22779-2.44439L38.4711,56.99738l.77632-1.3428L41.54492,51.689a.2609.2609,0,1,0-.4511-.26227l-2.07717,3.58786L38.21933,52.864a8.00932,8.00932,0,0,1-.535-3.462c0-.04194.0105-.09445.0105-.13639l1.46869-19.38713a.268.268,0,0,0-.24127-.28327.24876.24876,0,0,0-.28327.24127L38.29277,34.442,31.61,41.12467a6.17452,6.17452,0,0,1-2.29744,1.45825L8.59308,50.12587a6.92672,6.92672,0,0,1-.40916-2.31851,6.82384,6.82384,0,0,1,4.47956-6.40992l14.23614-5.1825,9.88246-9.8824A4.79212,4.79212,0,0,1,38.22983,25.294S55.21451,21.192,55.67611,21.15c7.78428-.70294,30.91667-2.69616,31.1265-2.69616A6.79625,6.79625,0,0,1,93.55875,24.66447Z"/><circle cx="13.81511" cy="82.66383" r="7.37386"/></g><text x="0" y="115" fill="#000000" font-size="5px" font-weight="bold" font-family="'Helvetica Neue', Helvetica, Arial-Unicode, Arial, Sans-serif">Created by Fatahillah</text><text x="0" y="120" fill="#000000" font-size="5px" font-weight="bold" font-family="'Helvetica Neue', Helvetica, Arial-Unicode, Arial, Sans-serif">from the Noun Project</text></svg>